<?xml version="1.0" standalone="no"?>
<!DOCTYPE svg PUBLIC "-//W3C//DTD SVG 20010904//EN"
 "http://www.w3.org/TR/2001/REC-SVG-20010904/DTD/svg10.dtd">
<svg version="1.0" xmlns="http://www.w3.org/2000/svg"
 width="1024.000000pt" height="1024.000000pt" viewBox="0 0 1024.000000 1024.000000"
 preserveAspectRatio="xMidYMid meet">
<metadata>
Created by potrace 1.14, written by Peter Selinger 2001-2017
</metadata>
<g transform="translate(0.000000,1024.000000) scale(0.100000,-0.100000)"
fill="#000000" stroke="none">
<path d="M1708 10229 c-465 -45 -919 -285 -1238 -653 -269 -312 -419 -657
-460 -1055 -14 -144 -14 -6658 0 -6802 42 -409 200 -763 482 -1079 325 -364
757 -585 1233 -630 153 -14 6637 -14 6790 0 242 23 454 84 665 191 519 264
908 766 1019 1314 11 55 25 147 31 204 14 144 14 6658 0 6802 -49 477 -268
904 -630 1227 -318 284 -676 443 -1085 482 -135 12 -6675 12 -6807 -1z m2590
-2654 c62 -19 105 -54 135 -109 21 -40 22 -51 25 -416 2 -251 -1 -390 -8 -420
-15 -61 -52 -112 -103 -141 l-42 -24 -517 -3 -518 -3 0 -1534 c0 -1044 -3
-1550 -11 -1584 -16 -74 -58 -133 -115 -162 l-49 -24 -395 0 c-387 0 -396 0
-436 22 -51 27 -99 81 -116 130 -10 30 -13 363 -16 1595 l-3 1557 -512 3
c-506 3 -512 3 -553 25 -23 12 -53 36 -67 52 -50 60 -52 78 -52 486 l0 380 28
57 c31 63 59 88 127 111 40 14 214 16 1596 17 1361 0 1557 -2 1602 -15z m1846
1 c62 -19 111 -57 139 -109 l22 -42 6 -1180 c4 -776 10 -1197 17 -1230 24
-115 33 -148 62 -226 78 -214 216 -391 397 -509 148 -97 295 -136 487 -127
226 9 406 94 572 269 133 141 211 281 267 487 l32 116 5 1191 5 1190 30 59
c25 47 40 63 85 89 l55 31 373 3 c315 3 381 1 427 -13 64 -18 108 -53 138
-109 l22 -41 0 -1205 c0 -1331 3 -1260 -65 -1538 -131 -538 -443 -1002 -872
-1299 -113 -79 -359 -201 -488 -243 -214 -69 -493 -107 -710 -96 -506 26 -930
204 -1274 536 -353 340 -572 772 -668 1316 l-23 129 0 1200 0 1200 22 40 c30
56 64 85 125 106 47 16 91 18 409 19 279 0 366 -3 403 -14z"/>
</g>
</svg>
